<svg width="60" height="60" viewBox="0 0 60 60" fill="none" xmlns="http://www.w3.org/2000/svg">
<path d="M13.1315 21.75H17.4554L18.1201 42H12.5562L13.1315 21.75ZM9.52083 43.125H51.4792V45.375H54.7917V48.75H57V51H4V48.75H6.20833V45.375H9.52083V43.125ZM53.6875 15.9135L30.5022 6L7.3125 15.9135V17.25H53.6875V15.9135ZM11.7292 18.375H49.2708V20.625H11.7292V18.375ZM43.4585 21.75H47.7802L48.4504 42H42.8788L43.4585 21.75ZM33.3532 21.75H37.6749L38.3374 42H32.7713L33.3532 21.75ZM23.2456 21.75H27.5684L28.2265 42H22.6626L23.2456 21.75Z" fill="#20378A"/>
</svg>
