<svg width="60" height="60" viewBox="0 0 60 60" fill="none" xmlns="http://www.w3.org/2000/svg">
<g clip-path="url(#clip0_31_13)">
<path d="M20.7 1.34625C20.8143 0.957483 21.0514 0.616195 21.3759 0.3735C21.7004 0.130805 22.0948 -0.000236949 22.5 3.21644e-07H37.5C37.7969 0.000225726 38.0896 0.0709725 38.3538 0.206416C38.6181 0.34186 38.8464 0.538128 39.0199 0.779063C39.1935 1.02 39.3074 1.29871 39.3521 1.59225C39.3969 1.8858 39.3713 2.18578 39.2775 2.4675L32.6025 22.5H46.875C47.2261 22.4998 47.5703 22.5981 47.8682 22.7839C48.1662 22.9696 48.406 23.2353 48.5604 23.5507C48.7148 23.8661 48.7775 24.2185 48.7414 24.5677C48.7053 24.917 48.5718 25.2491 48.3563 25.5263L22.1062 59.2763C21.8373 59.6237 21.455 59.8656 21.0259 59.9599C20.5968 60.0542 20.1482 59.9948 19.7584 59.7921C19.3687 59.5894 19.0624 59.2562 18.8932 58.8508C18.724 58.4454 18.7025 57.9934 18.8325 57.5737L25.5862 35.625H13.125C12.8335 35.6252 12.546 35.5574 12.2852 35.427C12.0245 35.2966 11.7978 35.1072 11.6231 34.8739C11.4483 34.6405 11.3304 34.3697 11.2787 34.0828C11.2269 33.7959 11.2428 33.5009 11.325 33.2213L20.7 1.34625Z" fill="#3C5C11"/>
</g>
<defs>
<clipPath id="clip0_31_13">
<rect width="60" height="60" fill="white"/>
</clipPath>
</defs>
</svg>
