<svg width="60" height="60" viewBox="0 0 60 60" fill="none" xmlns="http://www.w3.org/2000/svg">
<mask id="mask0_31_2" style="mask-type:luminance" maskUnits="userSpaceOnUse" x="5" y="5" width="50" height="50">
<path d="M30 25C31.1491 25 32.2869 24.7737 33.3485 24.3339C34.4101 23.8942 35.3747 23.2497 36.1872 22.4372C36.9997 21.6247 37.6442 20.6601 38.0839 19.5985C38.5237 18.5369 38.75 17.3991 38.75 16.25C38.75 15.1009 38.5237 13.9631 38.0839 12.9015C37.6442 11.8399 36.9997 10.8753 36.1872 10.0628C35.3747 9.2503 34.4101 8.60578 33.3485 8.16605C32.2869 7.72633 31.1491 7.5 30 7.5C27.6794 7.5 25.4538 8.42187 23.8128 10.0628C22.1719 11.7038 21.25 13.9294 21.25 16.25C21.25 18.5706 22.1719 20.7962 23.8128 22.4372C25.4538 24.0781 27.6794 25 30 25ZM7.5 51V52.5H52.5V51C52.5 45.4 52.5 42.6 51.41 40.46C50.4513 38.5785 48.9215 37.0487 47.04 36.09C44.9 35 42.1 35 36.5 35H23.5C17.9 35 15.1 35 12.96 36.09C11.0785 37.0487 9.54872 38.5785 8.59 40.46C7.5 42.6 7.5 45.4 7.5 51Z" fill="white" stroke="white" stroke-width="4" stroke-linecap="round" stroke-linejoin="round"/>
</mask>
<g mask="url(#mask0_31_2)">
<path d="M0 0H60V60H0V0Z" fill="#3C5C11"/>
</g>
</svg>
