<svg width="60" height="60" viewBox="0 0 60 60" fill="none" xmlns="http://www.w3.org/2000/svg">
<path d="M55 30C54.9987 23.37 52.3643 17.0119 47.6762 12.3238C42.9881 7.63567 36.63 5.00133 30 5V10C33.9552 10.0009 37.8215 11.1741 41.1102 13.3713C44.399 15.5686 46.9627 18.6913 48.4775 22.345C49.4828 24.7719 50.0001 27.3731 50 30H55ZM5 25V12.5C5 11.837 5.26339 11.2011 5.73223 10.7322C6.20107 10.2634 6.83696 10 7.5 10H20C20.663 10 21.2989 10.2634 21.7678 10.7322C22.2366 11.2011 22.5 11.837 22.5 12.5V22.5C22.5 23.163 22.2366 23.7989 21.7678 24.2678C21.2989 24.7366 20.663 25 20 25H15C15 30.3043 17.1071 35.3914 20.8579 39.1421C24.6086 42.8929 29.6957 45 35 45V40C35 39.337 35.2634 38.7011 35.7322 38.2322C36.2011 37.7634 36.837 37.5 37.5 37.5H47.5C48.163 37.5 48.7989 37.7634 49.2678 38.2322C49.7366 38.7011 50 39.337 50 40V52.5C50 53.163 49.7366 53.7989 49.2678 54.2678C48.7989 54.7366 48.163 55 47.5 55H35C18.4325 55 5 41.5675 5 25Z" fill="#3C5C11"/>
<path d="M43.8575 24.26C44.6122 26.0796 45.0004 28.0301 45 30H40.5C40.5003 28.621 40.229 27.2555 39.7014 25.9814C39.1738 24.7074 38.4004 23.5497 37.4254 22.5746C36.4503 21.5996 35.2926 20.8262 34.0186 20.2986C32.7445 19.771 31.379 19.4997 30 19.5V15C32.9666 15.0002 35.8666 15.88 38.3332 17.5283C40.7998 19.1765 42.7223 21.5192 43.8575 24.26Z" fill="#3C5C11"/>
</svg>
