<svg width="20" height="20" viewBox="0 0 20 20" fill="none" xmlns="http://www.w3.org/2000/svg">
<path fill-rule="evenodd" clip-rule="evenodd" d="M17.9283 0.136826C18.1742 0.0156739 18.4434 -0.0261107 18.7078 0.015821C18.9722 0.0577526 19.2221 0.181868 19.4316 0.375248C19.6411 0.568629 19.8025 0.824205 19.899 1.11537C19.9955 1.40654 20.0235 1.72266 19.9802 2.03083L17.7234 18.0553C17.5044 19.601 16.0556 20.4875 14.8446 19.7175C13.8316 19.0734 12.327 18.0809 10.9737 17.0454C10.297 16.5271 8.22427 14.8672 8.47901 13.6861C8.69793 12.6762 12.1807 8.88116 14.1709 6.6249C14.952 5.73847 14.5958 5.22711 13.6734 6.04248C11.3817 8.06695 7.70483 11.1456 6.48884 12.0122C5.41614 12.7763 4.8569 12.9068 4.1882 12.7763C2.96823 12.5387 1.83682 12.1706 0.913377 11.7222C-0.33446 11.1165 -0.27376 9.1083 0.912382 8.52356L17.9283 0.136826Z" fill="#8A1B13"/>
</svg>
